<?xml version="1.0" standalone="no"?>
<!DOCTYPE svg PUBLIC "-//W3C//DTD SVG 20010904//EN"
 "http://www.w3.org/TR/2001/REC-SVG-20010904/DTD/svg10.dtd">
<svg version="1.0" xmlns="http://www.w3.org/2000/svg"
 width="510.000000pt" height="510.000000pt" viewBox="0 0 510.000000 510.000000"
 preserveAspectRatio="xMidYMid meet">
<metadata>
Created by potrace 1.16, written by Peter Selinger 2001-2019
</metadata>
<g transform="translate(0.000000,510.000000) scale(0.100000,-0.100000)"
fill="#000000" stroke="none">
<path d="M0 2550 l0 -2550 2550 0 2550 0 0 2550 0 2550 -2550 0 -2550 0 0
-2550z m1907 628 c73 -69 28 -188 -71 -188 -101 0 -146 107 -78 184 38 42 107
44 149 4z m988 18 c38 -16 65 -60 65 -107 0 -45 -56 -99 -104 -99 -47 0 -79
16 -99 50 -34 57 -15 123 43 152 42 22 51 22 95 4z m-515 -236 l0 -139 98 -3
97 -3 0 -70 0 -70 -95 -1 -95 -2 -3 -313 c-2 -197 1 -327 7 -350 16 -55 42
-72 119 -78 l67 -6 0 -70 0 -70 -100 1 c-120 0 -180 23 -225 86 -45 61 -50
111 -50 468 l0 329 -72 3 -73 3 -3 73 -3 72 76 0 75 0 0 140 0 140 90 0 90 0
0 -140z m1018 -2 l3 -138 95 0 95 0 -3 -72 -3 -73 -93 0 -92 0 0 -332 c0 -236
3 -340 12 -358 17 -37 57 -55 123 -55 l56 0 -3 -72 -3 -73 -100 1 c-110 1
-155 16 -207 71 -58 61 -62 85 -66 468 l-3 350 -72 0 -72 0 0 70 0 70 73 3 72
3 0 133 c0 73 3 136 7 140 4 4 46 5 93 4 l85 -3 3 -137z m-2262 -135 c67 -22
111 -52 162 -107 23 -25 43 -46 45 -46 1 0 2 33 2 72 l0 73 88 3 87 3 0 -536
c0 -509 -1 -538 -20 -592 -36 -101 -135 -195 -243 -229 -29 -9 -100 -18 -158
-21 -174 -9 -297 30 -392 121 -41 41 -77 104 -77 136 0 18 6 20 80 20 l79 0
45 -44 c56 -56 118 -76 235 -76 122 1 204 42 249 125 15 28 34 225 22 225 -3
0 -18 -16 -34 -36 -96 -120 -302 -160 -457 -87 -75 35 -152 107 -191 179 -91
168 -91 458 1 618 34 59 112 141 156 164 98 51 231 66 321 35z m3109 3 c144
-38 237 -134 252 -257 l6 -50 -83 3 -82 3 -14 40 c-29 85 -116 131 -231 122
-128 -10 -197 -102 -148 -197 23 -45 71 -67 238 -110 211 -53 275 -88 319
-174 33 -62 31 -174 -4 -242 -60 -114 -196 -183 -365 -184 -222 -1 -376 106
-408 283 l-7 37 89 0 90 0 11 -39 c15 -50 78 -106 134 -122 24 -6 75 -9 113
-7 118 8 189 60 189 139 1 86 -42 115 -243 166 -211 52 -284 94 -327 188 -63
133 -2 299 135 370 84 43 239 57 336 31z m-2325 -516 l0 -510 -85 0 -85 0 0
510 0 510 85 0 85 0 0 -510z m1020 0 l0 -510 -90 0 -90 0 0 510 0 510 90 0 90
0 0 -510z"/>
<path d="M944 2656 c-61 -28 -116 -91 -146 -165 -32 -81 -32 -271 0 -352 45
-113 127 -178 237 -186 92 -8 139 9 205 75 82 82 104 151 98 310 -3 102 -7
124 -31 173 -33 68 -87 125 -141 150 -60 27 -157 25 -222 -5z"/>
</g>
</svg>
