<?xml version="1.0" standalone="no"?>
<!DOCTYPE svg PUBLIC "-//W3C//DTD SVG 20010904//EN"
 "http://www.w3.org/TR/2001/REC-SVG-20010904/DTD/svg10.dtd">
<svg version="1.0" xmlns="http://www.w3.org/2000/svg"
 width="600.000000pt" height="210.000000pt" viewBox="0 0 600.000000 210.000000"
 preserveAspectRatio="xMidYMid meet">
<g transform="translate(0.000000,210.000000) scale(0.100000,-0.100000)"
fill="#000000" stroke="none">
<path d="M1235 1761 c-39 -16 -60 -51 -60 -98 0 -38 5 -49 33 -74 70 -62 172
-20 172 71 0 52 -13 76 -50 95 -32 16 -64 18 -95 6z"/>
<path d="M2244 1751 c-89 -55 -47 -191 57 -191 47 0 94 37 103 80 6 34 -12 87
-37 108 -28 24 -89 25 -123 3z"/>
<path d="M1650 1530 l0 -130 -70 0 -70 0 0 -70 0 -70 70 0 70 0 0 -307 c0
-343 8 -407 55 -468 15 -21 48 -46 72 -57 47 -21 165 -35 207 -24 25 6 26 9
26 74 l0 67 -54 1 c-61 0 -102 21 -116 60 -6 14 -10 164 -10 340 l0 314 90 0
90 0 0 70 0 70 -90 0 -90 0 0 130 0 130 -90 0 -90 0 0 -130z"/>
<path d="M2670 1530 l0 -130 -70 0 -70 0 0 -70 0 -70 70 0 70 0 0 -287 c0
-159 5 -319 10 -358 14 -92 49 -151 111 -181 50 -26 157 -40 214 -30 l36 7 -3
66 -3 66 -55 2 c-30 1 -66 7 -78 14 -48 26 -52 57 -52 391 l0 310 95 0 95 0 0
70 0 70 -95 0 -95 0 0 130 0 130 -90 0 -90 0 0 -130z"/>
<path d="M4550 1531 l0 -130 -72 -3 -73 -3 0 -65 0 -65 73 -3 72 -3 0 -328 c0
-275 3 -337 16 -379 30 -93 97 -138 218 -148 40 -4 86 -4 100 0 26 6 27 8 24
74 l-3 67 -32 -3 c-41 -4 -107 14 -124 35 -11 12 -15 88 -19 350 l-5 333 93 0
92 0 0 70 0 70 -90 0 -89 0 -3 128 -3 127 -87 3 -88 3 0 -130z"/>
<path d="M360 1401 c-80 -26 -111 -44 -163 -98 -94 -97 -137 -217 -137 -388 0
-204 66 -354 193 -438 103 -69 230 -85 347 -45 49 16 78 34 122 78 l58 56 0
-86 c-1 -128 -34 -187 -130 -229 -124 -53 -319 -22 -367 60 -17 29 -19 29
-106 29 -87 0 -88 0 -82 -22 51 -169 264 -270 504 -239 155 19 263 90 323 210
l23 46 3 533 3 532 -86 0 -85 0 0 -77 0 -76 -29 40 c-81 111 -248 160 -391
114z m255 -157 c52 -24 103 -80 134 -144 24 -51 26 -65 26 -185 -1 -119 -3
-135 -27 -187 -107 -231 -395 -220 -489 18 -34 86 -33 253 1 339 60 152 219
224 355 159z"/>
<path d="M3453 1405 c-74 -20 -122 -47 -164 -92 -58 -61 -73 -98 -73 -183 0
-156 76 -225 314 -285 58 -15 126 -33 151 -41 127 -40 142 -173 26 -232 -36
-19 -61 -24 -126 -24 -113 -1 -164 26 -205 105 l-29 57 -79 0 -78 0 0 -33 c0
-44 41 -125 87 -171 146 -145 487 -137 617 16 95 111 83 289 -25 368 -46 33
-120 59 -267 95 -165 40 -212 73 -212 148 0 90 66 141 185 141 101 0 173 -46
192 -124 l9 -35 83 -3 84 -3 -7 43 c-21 127 -108 216 -251 254 -64 17 -165 17
-232 -1z"/>
<path d="M5356 1403 c-125 -33 -214 -107 -274 -228 -39 -78 -54 -158 -54 -271
2 -274 146 -464 380 -498 229 -33 424 84 496 296 42 127 38 323 -10 443 -85
211 -308 318 -538 258z m253 -170 c96 -49 151 -166 151 -320 -1 -232 -128
-380 -308 -359 -148 17 -238 135 -249 327 -6 96 7 168 42 239 70 137 224 185
364 113z"/>
<path d="M1190 910 l0 -490 85 0 85 0 0 490 0 490 -85 0 -85 0 0 -490z"/>
<path d="M2220 910 l0 -490 85 0 85 0 0 490 0 490 -85 0 -85 0 0 -490z"/>
<path d="M4212 618 c-57 -16 -89 -96 -61 -151 20 -39 51 -57 99 -57 88 0 136
81 95 160 -24 46 -75 65 -133 48z"/>
</g>
</svg>
